<svg width="600" height="600" viewBox="0 0 600 600" fill="none" xmlns="http://www.w3.org/2000/svg">
<path d="M277.047 264.75V333H263.031V264.75H277.047ZM298.281 264.75L312.531 295.875L326.781 264.75H342.109L319.656 308.156V333H305.406V308.156L282.906 264.75H298.281Z" fill="#FFF455"/>
<g clip-path="url(#clip0_304_9)">
<path d="M300 83.9999C326.59 143.722 383.218 76.67 426.962 125.252C460.668 162.687 504.549 182.886 505.428 233.252C506.534 296.616 560.312 335.061 505.428 366.748C471.329 386.435 420.124 435.972 426.962 474.748C438.314 539.128 362.841 497.98 300 516C261.19 527.128 210.472 489.872 173.038 474.748C113.352 450.633 147.94 402.745 94.5718 366.748C53.639 339.138 71.3922 276.847 94.5718 233.252C117.282 190.541 148.124 166.717 173.038 125.252C202.588 76.0733 276.664 31.5863 300 83.9999Z" stroke="#FFF455" stroke-width="20"/>
<path d="M300 132C331.749 115.119 370.413 186.223 398.748 164.085C419.203 148.104 448.807 224.56 459.777 248.085C475.396 281.58 488.499 328.657 459.777 351.915C436.496 370.768 426.324 424.209 398.748 435.915C365.649 449.964 312.298 434.211 300 468C283.598 513.065 247.785 447.517 201.252 435.915C165.392 426.974 176.904 347.411 140.222 351.915C95.6002 357.394 174.152 277.58 140.222 248.085C111.576 223.183 166.851 180.126 201.252 164.085C245.623 143.395 256.773 154.984 300 132Z" stroke="#FFF455" stroke-width="20"/>
<path d="M300 204C313.159 225.059 336.859 207.046 356.427 222.334C373.632 235.776 369.681 267.296 391.301 270.334C419.854 274.347 416.759 316.129 391.301 329.665C365.844 343.202 385.221 379.174 356.427 377.665C331.629 376.366 316.292 377.258 300 396C288.957 408.704 259.287 371.633 243.573 377.665C228.791 383.339 219.497 341.245 208.699 329.665C197.901 318.086 197.7 281.723 208.699 270.334C227.338 251.032 231.81 246.451 243.573 222.334C256.212 196.419 284.721 179.548 300 204Z" stroke="#FFF455" stroke-width="20"/>
</g>
<defs>
<clipPath id="clip0_304_9">
<rect width="600" height="600" fill="white"/>
</clipPath>
</defs>
</svg>
